<svg width="30px" height="20px" viewBox="0 0 30 20" version="1.1" xmlns="http://www.w3.org/2000/svg" xmlns:xlink="http://www.w3.org/1999/xlink">
    <path fill="#0071BA" d="M25.095,18.662 C24.6706615,18.6614243 24.309551,18.3527859 24.2428975,17.9337145 C24.176244,17.5146432 24.4237795,17.1091994 24.827,16.977 C26.47,16.439 27.532,14.999 27.532,13.307 C27.5286947,11.1634586 25.7915422,9.42675336 23.648,9.424 C23.498,9.424 23.338,9.435 23.144,9.461 L22.299,9.57 L22.179,8.727 C21.659,5.111 18.509,2.384 14.852,2.384 C11.8384282,2.3767725 9.12336921,4.20304361 7.994,6.997 L7.779,7.524 L7.21,7.534 C4.596,7.582 2.468,9.747 2.468,12.361 C2.468,14.268 3.576,16.008 5.29,16.792 C5.7147117,16.9957728 5.89791921,17.5022014 5.70188199,17.9305386 C5.50584477,18.3588758 5.00282188,18.5512372 4.571,18.363 C2.244,17.298 0.741,14.943 0.741,12.361 C0.741,9.001 3.329,6.187 6.617,5.841 C8.12891601,2.66669887 11.3350364,0.648174666 14.851,0.657 C19.095,0.657 22.783,3.632 23.74,7.697 C26.8016756,7.75041395 29.2566505,10.2458603 29.26,13.308 C29.26,15.722 27.694,17.856 25.364,18.618 C25.2772182,18.6467745 25.1864271,18.6616251 25.095,18.662 L25.095,18.662 Z" fill-rule="nonzero"></path>
    <path fill="#DB8226" d="M11.897,19.063 L11.895,19.063 L11.895,19.062 L11.894,19.062 L11.894,19.061 L11.892,19.061 L11.892,19.06 L11.89,19.06 L11.89,19.059 L11.888,19.059 L11.887,19.058 L11.885,19.058 C11.871207,19.0528335 11.8567072,19.0497986 11.842,19.049 L11.837,19.049 C11.4623439,19.0484719 11.1578338,18.7466369 11.154,18.372 L11.154,10.772 L11.737,10.772 C11.7768284,10.773969 11.81567,10.759218 11.8441507,10.7313069 C11.8726315,10.7033958 11.8881641,10.6648601 11.887,10.625 C11.886736,10.5654484 11.8503294,10.5120256 11.795,10.49 L9.001,8.56 C8.95073783,8.52530992 8.88426217,8.52530992 8.834,8.56 L6.018,10.505 C5.96601116,10.5417735 5.94361147,10.6078395 5.96251479,10.668649 C5.98141812,10.7294584 6.03732536,10.7711818 6.101,10.772 L6.683,10.772 L6.683,18.374 C6.68794658,18.911788 7.12619184,19.3446725 7.664,19.343 L11.839,19.343 C11.8758668,19.3426449 11.9112342,19.328355 11.938,19.303 L11.938,19.301 L11.94,19.301 L11.94,19.299 L11.941,19.299 L11.941,19.298 L11.942,19.298 C11.9681933,19.270889 11.982885,19.2346973 11.983,19.197 L11.983,19.195 C11.982079,19.1381302 11.9486493,19.0868195 11.897,19.063 L11.897,19.063 Z">
        <animate attributeName="opacity"
            values="0;1;0" dur="1s"
            repeatCount="indefinite"
            begin="0s"/>
    </path>
    <path fill="#F4B21B" d="M17.94,19.063 L17.938,19.063 L17.938,19.062 L17.937,19.062 L17.936,19.061 L17.935,19.061 L17.935,19.06 L17.934,19.06 L17.933,19.059 L17.931,19.059 L17.93,19.058 C17.929,19.058 17.93,19.058 17.93,19.058 L17.929,19.058 L17.928,19.057 C17.9141536,19.0521745 17.8996554,19.0494771 17.885,19.049 L17.879,19.049 C17.5043479,19.0479189 17.2002849,18.7456393 17.197,18.371 L17.197,12.473 L17.785,12.473 C17.8547849,12.4731934 17.9149498,12.4239748 17.9285889,12.3555355 C17.9422281,12.2870962 17.9055276,12.2185735 17.841,12.192 L15.046,10.262 C14.9959611,10.227768 14.9300389,10.227768 14.88,10.262 L12.064,12.206 C12.0120112,12.2427735 11.9896115,12.3088395 12.0085148,12.369649 C12.0274181,12.4304584 12.0833254,12.4721818 12.147,12.473 L12.727,12.473 L12.727,18.373 C12.7313981,18.9107884 13.1691948,19.3441178 13.707,19.343 L17.882,19.343 C17.9193508,19.3426285 17.9551387,19.3279555 17.982,19.302 L17.982,19.3 L17.983,19.299 L17.984,19.298 L17.985,19.298 L17.985,19.297 C18.0115592,19.270048 18.0266172,19.2338373 18.027,19.196 L18.027,19.193 C18.02514,19.1366292 17.9914019,19.0862159 17.94,19.063 L17.94,19.063 Z">
        <animate attributeName="opacity"
            values="0;1;0" dur="1s"
            repeatCount="indefinite"
            begin=".3s"/>
    </path>
    <path fill="#F2D865" d="M23.985,19.063 L23.984,19.063 L23.984,19.062 L23.982,19.062 L23.982,19.061 L23.981,19.061 L23.981,19.06 L23.979,19.06 L23.979,19.059 L23.976,19.059 L23.976,19.058 L23.975,19.058 C23.974,19.058 23.974,19.058 23.975,19.058 L23.974,19.058 L23.974,19.057 C23.9601536,19.0521745 23.9456554,19.0494771 23.931,19.049 L23.925,19.049 C23.5503479,19.0479189 23.2462849,18.7456393 23.243,18.371 L23.243,14.175 L23.827,14.175 C23.8664246,14.1755337 23.9044325,14.160314 23.9325927,14.1327171 C23.9607529,14.1051201 23.9767372,14.0674274 23.977,14.028 C23.9769008,13.9686943 23.9409368,13.9153411 23.886,13.893 L21.091,11.964 C21.0407378,11.9293099 20.9742622,11.9293099 20.924,11.964 L18.108,13.908 C18.0560112,13.9447735 18.0336115,14.0108395 18.0525148,14.071649 C18.0714181,14.1324584 18.1273254,14.1741818 18.191,14.175 L18.771,14.175 L18.772,18.373 C18.7763981,18.9107884 19.2141948,19.3441178 19.752,19.343 L23.927,19.343 C23.9640037,19.3423749 23.9993892,19.3277203 24.026,19.302 L24.027,19.301 L24.028,19.3 L24.029,19.299 C24.03,19.299 24.029,19.299 24.029,19.299 L24.03,19.298 C24.0565592,19.271048 24.0716172,19.2348373 24.072,19.197 L24.072,19.194 C24.0703771,19.1375532 24.0365625,19.0870257 23.985,19.064 L23.985,19.063 Z">
        <animate attributeName="opacity"
            values="0;1;0" dur="1s"
            repeatCount="indefinite"
            begin=".6s"/>
    </path>
</svg>
