<svg width="512" height="512" xmlns="http://www.w3.org/2000/svg">
 <g>
  <title>Gutenslider Background</title>
  <rect fill="none" id="canvas_background" height="402" width="582" y="-1" x="-1"/>
 </g>
 <g>
  <title>Gutenslider</title>
  <circle id="svg_2" r="252.5" fill="#3f007f" cy="256.815287" cx="256.815287"/>
  <path id="svg_4" fill="#d8d8d8" d="m417.200012,384.200012l-322.400009,0c-0.900002,0 -1.5,-0.700012 -1.5,-1.5l0,-253.300018c0,-0.900009 0.699997,-1.500008 1.5,-1.500008l322.400009,0c0.899994,0 1.5,0.700005 1.5,1.500008l0,253.199982c0.099976,0.900024 -0.600006,1.600037 -1.5,1.600037z"/>
  <rect id="svg_5" y="163.3" x="104.3" width="303.5" height="209.8" fill="#FFFFFF"/>
  <rect id="svg_6" y="163.3" x="104.3" width="303.5" height="29.7" fill="#000000"/>
  <path id="svg_10" fill="#FFFFFF" d="m301.399994,186l-173.199997,0c-4.199997,0 -7.599998,-3.399994 -7.599998,-7.600006l0,0c0,-4.199997 3.400002,-7.599991 7.599998,-7.599991l173.199997,0c4.199982,0 7.600006,3.399994 7.600006,7.599991l0,0c0,4.100006 -3.399994,7.600006 -7.600006,7.600006z"/>
  <rect id="svg_12" y="232.2" x="192.1" width="127.8" height="10.3" fill="#E6E9EE"/>
  <rect id="svg_13" y="259.1" x="192.1" width="127.8" height="10.3" fill="#E6E9EE"/>
  <rect id="svg_14" y="285.9" x="192.1" width="127.8" height="10.3" fill="#E6E9EE"/>
  <rect id="svg_15" y="312.7" x="192.1" width="58.2" height="10.3" fill="#E6E9EE"/>
  <path id="svg_18" fill="#c6c6c6" d="m347.700012,315.600006c-1.5,0 -3,-0.600006 -4.200012,-1.699982c-2.299988,-2.300018 -2.299988,-6.100006 0,-8.400024l27.800018,-27.799988l-27.800018,-27.800003c-2.299988,-2.300003 -2.299988,-6.100006 0,-8.399994c2.300018,-2.300003 6.100006,-2.300003 8.400024,0l32,31.999985c1.099976,1.100006 1.699982,2.600006 1.699982,4.200012c0,1.600006 -0.600006,3.100006 -1.699982,4.200012l-32,32c-1.100037,1.099976 -2.700012,1.699982 -4.200012,1.699982z"/>
  <path id="svg_20" fill="#c6c6c6" d="m164.300003,315.600006c-1.5,0 -3,-0.600006 -4.199997,-1.699982l-32,-32c-1.100006,-1.100006 -1.700005,-2.600006 -1.700005,-4.200012c0,-1.600006 0.599998,-3.100006 1.700005,-4.200012l32,-31.999985c2.299988,-2.300003 6.099991,-2.300003 8.399994,0c2.300003,2.299988 2.300003,6.099991 0,8.399994l-27.800003,27.800003l27.800003,27.799988c2.300003,2.299988 2.300003,6.100006 0,8.399994c-1.199997,1.100006 -2.699997,1.700012 -4.199997,1.700012z"/>
  <ellipse ry="7.33758" rx="7.33758" id="svg_21" cy="146.289604" cx="395.821669" stroke-opacity="null" stroke-width="null" stroke="null" fill="#00bf00"/>
  <ellipse ry="7.33758" rx="7.33758" id="svg_22" cy="146.289604" cx="375.439503" stroke-opacity="null" stroke-width="null" stroke="null" fill="#ffcf56"/>
  <ellipse ry="7.33758" rx="7.33758" id="svg_23" cy="146.289604" cx="354.242048" stroke-opacity="null" stroke-width="null" stroke="null" fill="#ff5656"/>
 </g>
</svg>
